<?xml version="1.0" standalone="no"?>
<!DOCTYPE svg PUBLIC "-//W3C//DTD SVG 20010904//EN"
 "http://www.w3.org/TR/2001/REC-SVG-20010904/DTD/svg10.dtd">
<svg version="1.0" xmlns="http://www.w3.org/2000/svg"
 width="260.000000pt" height="260.000000pt" viewBox="0 0 260.000000 260.000000"
 preserveAspectRatio="xMidYMid meet">
<metadata>
Created by potrace 1.14, written by Peter Selinger 2001-2017
</metadata>
<g transform="translate(0.000000,260.000000) scale(0.100000,-0.100000)"
fill="#000000" stroke="none">
<path d="M1079 2443 c-15 -39 -112 -245 -198 -423 -28 -58 -51 -115 -51 -126
0 -12 -9 -31 -19 -43 -11 -12 -25 -44 -31 -72 -14 -59 -27 -69 -40 -33 -6 15
-19 38 -29 53 -10 14 -24 59 -31 99 -7 39 -16 72 -19 72 -4 0 -12 26 -20 58
-16 71 -40 123 -64 140 -10 8 -34 46 -53 85 -53 108 -84 158 -96 151 -12 -8
-2 -899 12 -999 5 -38 14 -101 19 -140 5 -38 15 -172 22 -296 13 -236 3 -475
-22 -505 -6 -8 -32 -15 -58 -16 l-46 -1 50 -6 c54 -7 67 -24 47 -65 -14 -27
-31 -156 -21 -156 4 0 10 28 14 63 4 34 11 67 15 72 5 6 10 26 12 45 l3 35
252 -3 c223 -3 258 -1 300 15 44 16 96 18 639 18 490 0 594 -2 608 -14 9 -8
19 -12 21 -9 9 8 -36 283 -54 333 -19 56 -41 134 -41 149 0 9 -4 16 -9 16 -5
0 -11 21 -14 47 -6 69 -26 163 -41 198 -8 17 -17 46 -21 65 -4 19 -13 46 -20
60 -7 14 -18 43 -23 65 -22 87 -36 131 -45 142 -9 12 -54 189 -64 253 -3 19
-10 38 -15 41 -5 3 -16 55 -23 115 -27 210 -36 269 -49 299 -23 53 -59 159
-64 188 -5 32 -27 46 -45 28 -6 -6 -19 -37 -28 -69 -20 -69 -78 -223 -90 -237
-4 -6 -17 -51 -30 -100 -12 -49 -28 -99 -35 -110 -7 -11 -18 -42 -23 -70 -9
-43 -19 -81 -37 -144 -6 -18 -43 20 -69 72 -11 20 -22 37 -26 37 -3 0 -14 24
-23 54 -10 30 -24 60 -31 66 -7 6 -17 30 -20 52 -4 23 -18 72 -31 109 -13 38
-24 78 -24 89 0 11 -4 20 -9 20 -5 0 -11 15 -14 33 -20 121 -38 167 -65 167
-5 0 -21 14 -35 30 -37 41 -83 42 -98 3z"/>
</g>
</svg>
